<?xml version="1.0" encoding="iso-8859-1"?>
<!-- Generator: Adobe Illustrator 19.0.0, SVG Export Plug-In . SVG Version: 6.00 Build 0)  -->
<svg version="1.1" id="Layer_1" xmlns="http://www.w3.org/2000/svg" xmlns:xlink="http://www.w3.org/1999/xlink" x="0px" y="0px"
	 viewBox="0 0 511.999 511.999" style="enable-background:new 0 0 511.999 511.999;" xml:space="preserve">
<g>
	<path style="fill:#415E72;" d="M230.635,504.974c-12.404,4.378-25.433,6.714-38.589,6.93c-15.301,0.888-30.314-4.45-41.614-14.805
		c-9.747-10.131-14.949-23.792-14.405-37.837c-0.36-21.992,8.875-43.055,25.289-57.7c15.205-12.396,34.332-18.966,53.947-18.542
		c10.908-0.416,21.783,1.569,31.843,5.81l-6.746,18.358c-8.427-3.713-17.582-5.506-26.785-5.242
		c-12.844-0.24-25.345,4.145-35.212,12.364c-12.084,11.108-18.838,26.857-18.542,43.271c0,22.664,12.364,35.78,35.964,35.78
		c5.498,0.064,10.964-0.888,16.118-2.817l5.994-31.651h-22.288l3.553-17.606h43.463L230.635,504.974z"/>
	<path style="fill:#415E72;" d="M252.579,510.575l17.238-91.231h21.912l-17.422,91.231L252.579,510.575L252.579,510.575z
		 M273.386,394.624c-0.184-7.154,5.458-13.1,12.612-13.293c0.168-0.008,0.336-0.008,0.504,0c6.218-0.2,11.42,4.674,11.62,10.892
		c0.008,0.304,0.008,0.608-0.008,0.912c0.064,7.178-5.698,13.052-12.876,13.117c-0.208,0-0.416,0-0.616-0.008
		c-5.962,0.264-11.012-4.361-11.276-10.332c-0.016-0.432-0.008-0.864,0.024-1.296L273.386,394.624z"/>
	<path style="fill:#415E72;" d="M301.859,510.575l14.053-74.37h-11.804l3.201-16.854h11.804l0.904-4.69
		c1.473-11.66,6.826-22.48,15.205-30.723c6.746-5.57,15.261-8.563,24.008-8.427c4.618-0.232,9.235,0.592,13.493,2.401l-4.121,17.23
		c-2.809-1.064-5.802-1.569-8.803-1.497c-10.3,0-16.11,9.555-18.174,21.359l-0.8,4.337h18.918l-3.201,16.854h-18.918l-14.037,74.378
		H301.859z"/>
</g>
<circle style="fill:#25B6D2;" cx="147.406" cy="207.447" r="99.274"/>
<circle style="fill:#E04F5F;" cx="255.996" cy="153.333" r="99.274"/>
<path style="fill:#FFFFFF;" d="M364.593,194.555c-52.618,0-95.273-42.655-95.273-95.273s42.655-95.273,95.273-95.273
	s95.273,42.655,95.273,95.273l0,0C459.81,151.876,417.187,194.491,364.593,194.555z"/>
<path style="fill:#AAC1CE;" d="M364.585,8.003c50.409,0,91.271,40.862,91.271,91.271s-40.862,91.271-91.271,91.271
	s-91.271-40.862-91.271-91.271l0,0C273.378,48.889,314.208,8.059,364.585,8.003 M364.585,0
	c-54.827,0.008-99.274,44.455-99.266,99.282s44.455,99.274,99.282,99.266s99.266-44.447,99.266-99.274
	C463.867,44.447,419.428,0,364.585,0C364.593,0,364.593,0,364.585,0z"/>
<g>
</g>
<g>
</g>
<g>
</g>
<g>
</g>
<g>
</g>
<g>
</g>
<g>
</g>
<g>
</g>
<g>
</g>
<g>
</g>
<g>
</g>
<g>
</g>
<g>
</g>
<g>
</g>
<g>
</g>
</svg>
