<!-- Generated by IcoMoon.io -->
<svg version="1.1" xmlns="http://www.w3.org/2000/svg" width="32" height="32" viewBox="0 0 32 32">
<title>gif</title>
<path d="M21.854 1.146c-0.090-0.090-0.215-0.146-0.354-0.146 0 0 0 0-0 0h-14c-1.932 0.002-3.498 1.568-3.5 3.5v23c0.002 1.932 1.568 3.498 3.5 3.5h17c1.932-0.002 3.498-1.568 3.5-3.5v-20c0 0 0 0 0-0 0-0.138-0.056-0.263-0.146-0.354v0zM22 2.707l4.293 4.293h-1.793c-1.38-0.002-2.498-1.12-2.5-2.5v-0zM7.5 2h13.5v2.5c0.002 1.932 1.568 3.498 3.5 3.5h2.5v14h-22v-17.5c0.002-1.38 1.12-2.498 2.5-2.5h0zM24.5 30h-17c-1.38-0.002-2.498-1.12-2.5-2.5v-4.5h22v4.5c-0.002 1.38-1.12 2.498-2.5 2.5h-0z"></path>
<path d="M13.5 26h-1c-0.276 0-0.5 0.224-0.5 0.5s0.224 0.5 0.5 0.5v0h0.441c-0.141 0.576-0.515 1-0.941 1-0.542 0-1-0.687-1-1.5s0.458-1.5 1-1.5c0.104 0 0.203 0.025 0.291 0.068l-0.004-0.002c0.062 0.030 0.136 0.048 0.213 0.048 0.276 0 0.5-0.224 0.5-0.5 0-0.199-0.116-0.37-0.284-0.451l-0.003-0.001c-0.209-0.102-0.454-0.161-0.713-0.162h-0c-1.103 0-2 1.122-2 2.5s0.897 2.5 2 2.5 2-1.122 2-2.5c0-0.276-0.224-0.5-0.5-0.5v0z"></path>
<path d="M17.5 25c0.276 0 0.5-0.224 0.5-0.5s-0.224-0.5-0.5-0.5v0h-2c-0.276 0-0.5 0.224-0.5 0.5s0.224 0.5 0.5 0.5v0h0.5v3h-0.5c-0.276 0-0.5 0.224-0.5 0.5s0.224 0.5 0.5 0.5v0h2c0.276 0 0.5-0.224 0.5-0.5s-0.224-0.5-0.5-0.5v0h-0.5v-3z"></path>
<path d="M21.5 24h-2c-0.276 0-0.5 0.224-0.5 0.5v0 4c0 0.276 0.224 0.5 0.5 0.5s0.5-0.224 0.5-0.5v0-1.5h0.5c0.276 0 0.5-0.224 0.5-0.5s-0.224-0.5-0.5-0.5v0h-0.5v-1h1.5c0.276 0 0.5-0.224 0.5-0.5s-0.224-0.5-0.5-0.5v0z"></path>
<path d="M11.173 8.901c0.088 0.078 0.204 0.125 0.331 0.125 0.149 0 0.282-0.065 0.374-0.168l0-0.001c0.197-0.222 0.405-0.423 0.628-0.607l0.009-0.008c0.112-0.092 0.183-0.231 0.183-0.387 0-0.276-0.224-0.5-0.5-0.5-0.121 0-0.231 0.043-0.318 0.114l0.001-0.001c-0.274 0.226-0.52 0.463-0.747 0.718l-0.006 0.007c-0.078 0.088-0.126 0.204-0.126 0.331 0 0.149 0.065 0.283 0.168 0.374l0.001 0z"></path>
<path d="M12.57 17.449c-0.042 0.072-0.067 0.158-0.067 0.25 0 0.184 0.099 0.345 0.248 0.432l0.002 0.001c0.266 0.157 0.577 0.308 0.901 0.433l0.044 0.015c0.052 0.020 0.112 0.032 0.175 0.032 0.276 0 0.5-0.224 0.5-0.5 0-0.212-0.132-0.393-0.317-0.466l-0.003-0.001c-0.311-0.119-0.575-0.247-0.825-0.393l0.026 0.014c-0.072-0.042-0.158-0.067-0.25-0.067-0.184 0-0.345 0.099-0.432 0.248l-0.001 0.002z"></path>
<path d="M13.864 7.392c0.064-0 0.125-0.012 0.181-0.034l-0.003 0.001c0.236-0.094 0.521-0.179 0.813-0.241l0.036-0.006c0.231-0.047 0.403-0.249 0.403-0.49 0-0.276-0.224-0.5-0.5-0.5-0.037 0-0.072 0.004-0.107 0.011l0.003-0.001c-0.389 0.080-0.725 0.181-1.049 0.307l0.044-0.015c-0.19 0.074-0.322 0.255-0.322 0.467 0 0.276 0.224 0.5 0.5 0.5 0 0 0 0 0 0h-0z"></path>
<path d="M11.353 15.444c-0.090-0.144-0.247-0.238-0.426-0.238-0.276 0-0.5 0.224-0.5 0.5 0 0.102 0.030 0.197 0.083 0.276l-0.001-0.002c0.201 0.314 0.408 0.587 0.635 0.841l-0.006-0.007c0.092 0.103 0.225 0.168 0.374 0.168 0.276 0 0.5-0.224 0.5-0.5 0-0.128-0.048-0.244-0.127-0.333l0 0c-0.187-0.21-0.363-0.441-0.52-0.684l-0.013-0.022z"></path>
<path d="M10.053 11.556c0.036 0.009 0.077 0.014 0.119 0.014 0.234 0 0.43-0.161 0.485-0.378l0.001-0.003c0.081-0.327 0.176-0.606 0.293-0.875l-0.014 0.035c0.025-0.058 0.040-0.125 0.040-0.196 0-0.276-0.224-0.5-0.5-0.5-0.205 0-0.382 0.124-0.459 0.301l-0.001 0.003c-0.122 0.276-0.235 0.607-0.321 0.949l-0.009 0.045c-0.009 0.036-0.014 0.076-0.014 0.118 0 0.234 0.161 0.43 0.378 0.485l0.003 0.001z"></path>
<path d="M9.689 14.062c0.056 0.22 0.252 0.38 0.486 0.38 0.276 0 0.5-0.224 0.5-0.5 0-0.043-0.005-0.084-0.015-0.123l0.001 0.003c-0.065-0.251-0.115-0.548-0.141-0.853l-0.001-0.020c-0.019-0.261-0.235-0.466-0.499-0.466-0.276 0-0.5 0.224-0.5 0.5 0 0.016 0.001 0.032 0.002 0.048l-0-0.002c0.032 0.384 0.091 0.736 0.177 1.077l-0.010-0.045z"></path>
<path d="M16.654 7.038c0.328 0.039 0.622 0.101 0.906 0.184l-0.039-0.010c0.041 0.012 0.089 0.019 0.138 0.019 0.276 0 0.5-0.224 0.5-0.5 0-0.227-0.151-0.419-0.358-0.48l-0.004-0.001c-0.29-0.087-0.638-0.16-0.994-0.203l-0.031-0.003c-0.018-0.002-0.038-0.003-0.059-0.003-0.276 0-0.5 0.224-0.5 0.5 0 0.255 0.192 0.466 0.439 0.496l0.002 0z"></path>
<path d="M16.667 17.96c-0.2 0.025-0.432 0.040-0.668 0.040-0.076 0-0.153-0.002-0.228-0.005l0.011 0c-0.006-0-0.013-0-0.019-0-0.276 0-0.5 0.224-0.5 0.5 0 0.269 0.213 0.489 0.48 0.5l0.001 0c0.085 0.003 0.172 0.005 0.258 0.005 0.277-0 0.55-0.017 0.819-0.050l-0.032 0.003c0.249-0.031 0.44-0.241 0.44-0.496 0-0.276-0.224-0.5-0.5-0.5-0.021 0-0.042 0.001-0.062 0.004l0.002-0z"></path>
<path d="M21.215 10.747c0.069 0.2 0.255 0.341 0.474 0.341 0.276 0 0.5-0.224 0.5-0.5 0-0.057-0.010-0.112-0.027-0.163l0.001 0.004c-0.127-0.375-0.267-0.693-0.43-0.996l0.017 0.035c-0.086-0.16-0.251-0.266-0.442-0.266-0.276 0-0.5 0.224-0.5 0.5 0 0.085 0.021 0.166 0.059 0.236l-0.001-0.003c0.123 0.227 0.241 0.496 0.337 0.774l0.012 0.039z"></path>
<path d="M19.125 17.026c-0.219 0.154-0.47 0.301-0.733 0.429l-0.033 0.014c-0.172 0.081-0.289 0.254-0.289 0.453 0 0.276 0.224 0.5 0.5 0.5 0.079 0 0.155-0.019 0.221-0.052l-0.003 0.001c0.349-0.167 0.646-0.342 0.926-0.538l-0.021 0.014c0.133-0.091 0.219-0.242 0.219-0.414 0-0.276-0.224-0.5-0.5-0.5-0.108 0-0.208 0.034-0.29 0.092l0.002-0.001z"></path>
<path d="M21.547 14.845c-0.067-0.036-0.147-0.057-0.233-0.057-0.191 0-0.357 0.107-0.441 0.265l-0.001 0.003c-0.152 0.286-0.309 0.531-0.484 0.762l0.010-0.014c-0.064 0.083-0.103 0.189-0.103 0.304 0 0.276 0.224 0.5 0.5 0.5 0.164 0 0.31-0.079 0.401-0.201l0.001-0.001c0.195-0.256 0.38-0.545 0.543-0.849l0.017-0.035c0.036-0.067 0.057-0.148 0.057-0.233 0-0.191-0.107-0.357-0.265-0.441l-0.003-0.001z"></path>
<path d="M21.5 12.487v0.013c0 0 0 0 0 0 0 0.312-0.026 0.617-0.075 0.915l0.004-0.032c-0.004 0.024-0.006 0.051-0.006 0.079 0 0.276 0.224 0.5 0.5 0.5 0.248 0 0.454-0.181 0.493-0.418l0-0.003c0.053-0.313 0.083-0.673 0.083-1.040 0-0.001 0-0.001 0-0.002v0c0-0.002 0-0.005 0-0.007v-0.006c0-0.276-0.224-0.5-0.5-0.5s-0.5 0.224-0.5 0.5v0z"></path>
<path d="M19.116 7.967c0.256 0.178 0.48 0.361 0.689 0.561l-0.002-0.002c0.089 0.082 0.208 0.132 0.339 0.132 0.276 0 0.5-0.224 0.5-0.5 0-0.139-0.056-0.264-0.148-0.355l-0-0c-0.244-0.234-0.509-0.45-0.789-0.646l-0.021-0.014c-0.079-0.055-0.178-0.088-0.284-0.088-0.276 0-0.5 0.224-0.5 0.5 0 0.17 0.085 0.32 0.215 0.411l0.002 0.001z"></path>
<path d="M14.237 10.075c-0.143 0.090-0.237 0.246-0.237 0.425v4c0 0.276 0.224 0.5 0.5 0.5 0.082 0 0.158-0.020 0.226-0.054l-0.003 0.001 4-2c0.165-0.084 0.276-0.253 0.276-0.447s-0.111-0.363-0.273-0.446l-0.003-0.001-4-2c-0.065-0.033-0.142-0.053-0.223-0.053-0.097 0-0.188 0.028-0.265 0.076l0.002-0.001zM15 11.309l2.382 1.191-2.382 1.191z"></path>
</svg>
